<svg width="24" height="20" viewBox="0 0 24 20" fill="none" xmlns="http://www.w3.org/2000/svg">
<path d="M2.37037 19.2595C1.71852 19.2595 1.16069 19.024 0.696889 18.5529C0.233086 18.0819 0.000790123 17.5149 0 16.8521V2.40765C0 1.74561 0.232296 1.17907 0.696889 0.708022C1.16148 0.236972 1.71931 0.00104661 2.37037 0.000244141H21.3333C21.9852 0.000244141 22.5434 0.23617 23.008 0.708022C23.4726 1.17987 23.7045 1.74642 23.7037 2.40765V16.8521C23.7037 17.5141 23.4718 18.0811 23.008 18.5529C22.5442 19.0248 21.986 19.2603 21.3333 19.2595H2.37037ZM11.8519 10.8336L21.3333 4.81506V2.40765L11.8519 8.42617L2.37037 2.40765V4.81506L11.8519 10.8336Z" fill="white"/>
</svg>
