<svg width="23" height="23" viewBox="0 0 23 23" fill="none" xmlns="http://www.w3.org/2000/svg">
<path d="M6.54111 0.0373535H16.0144C19.6233 0.0373535 22.5555 2.96957 22.5555 6.57846V16.0518C22.5555 17.7866 21.8664 19.4504 20.6397 20.677C19.413 21.9037 17.7492 22.5929 16.0144 22.5929H6.54111C2.93222 22.5929 0 19.6607 0 16.0518V6.57846C0 4.84365 0.689151 3.1799 1.91585 1.9532C3.14254 0.726504 4.8063 0.0373535 6.54111 0.0373535ZM6.31555 2.29291C5.23877 2.29291 4.2061 2.72066 3.4447 3.48205C2.6833 4.24345 2.25555 5.27613 2.25555 6.35291V16.2773C2.25555 18.5216 4.07128 20.3373 6.31555 20.3373H16.24C17.3168 20.3373 18.3494 19.9096 19.1108 19.1482C19.8722 18.3868 20.3 17.3541 20.3 16.2773V6.35291C20.3 4.10863 18.4843 2.29291 16.24 2.29291H6.31555ZM17.1986 3.98457C17.5725 3.98457 17.9311 4.1331 18.1954 4.39747C18.4598 4.66185 18.6083 5.02041 18.6083 5.39429C18.6083 5.76818 18.4598 6.12674 18.1954 6.39112C17.9311 6.65549 17.5725 6.80402 17.1986 6.80402C16.8247 6.80402 16.4662 6.65549 16.2018 6.39112C15.9374 6.12674 15.7889 5.76818 15.7889 5.39429C15.7889 5.02041 15.9374 4.66185 16.2018 4.39747C16.4662 4.1331 16.8247 3.98457 17.1986 3.98457ZM11.2778 5.67624C12.7733 5.67624 14.2076 6.27033 15.2651 7.32783C16.3226 8.38533 16.9167 9.8196 16.9167 11.3151C16.9167 12.8106 16.3226 14.2449 15.2651 15.3024C14.2076 16.3599 12.7733 16.954 11.2778 16.954C9.78225 16.954 8.34797 16.3599 7.29048 15.3024C6.23298 14.2449 5.63889 12.8106 5.63889 11.3151C5.63889 9.8196 6.23298 8.38533 7.29048 7.32783C8.34797 6.27033 9.78225 5.67624 11.2778 5.67624ZM11.2778 7.93179C10.3805 7.93179 9.51989 8.28825 8.88539 8.92275C8.2509 9.55725 7.89444 10.4178 7.89444 11.3151C7.89444 12.2124 8.2509 13.073 8.88539 13.7075C9.51989 14.342 10.3805 14.6985 11.2778 14.6985C12.1751 14.6985 13.0357 14.342 13.6701 13.7075C14.3046 13.073 14.6611 12.2124 14.6611 11.3151C14.6611 10.4178 14.3046 9.55725 13.6701 8.92275C13.0357 8.28825 12.1751 7.93179 11.2778 7.93179Z" fill="white"/>
</svg>
