<svg width="28" height="20" viewBox="0 0 28 20" fill="none" xmlns="http://www.w3.org/2000/svg">
<path d="M11.3561 14.1022L18.2932 9.98492L11.3561 5.86764V14.1022ZM26.8075 3.3561C26.9812 4.00114 27.1015 4.86577 27.1817 5.96371C27.2753 7.06165 27.3154 8.00862 27.3154 8.83208L27.3956 9.98492C27.3956 12.9905 27.1817 15.2001 26.8075 16.6137C26.4733 17.8489 25.6981 18.6449 24.4951 18.988C23.8669 19.1665 22.7174 19.29 20.9531 19.3723C19.2154 19.4684 17.6249 19.5096 16.1546 19.5096L14.0293 19.5919C8.42888 19.5919 4.94029 19.3723 3.56356 18.988C2.3606 18.6449 1.58536 17.8489 1.2512 16.6137C1.07744 15.9687 0.957143 15.1041 0.876946 14.0061C0.783382 12.9082 0.743283 11.9612 0.743283 11.1378L0.663086 9.98492C0.663086 6.9793 0.876946 4.7697 1.2512 3.3561C1.58536 2.12091 2.3606 1.3249 3.56356 0.981798C4.19178 0.803382 5.34127 0.679863 7.10562 0.597518C8.84323 0.501448 10.4338 0.460275 11.9041 0.460275L14.0293 0.37793C19.6298 0.37793 23.1184 0.597518 24.4951 0.981798C25.6981 1.3249 26.4733 2.12091 26.8075 3.3561Z" fill="white"/>
</svg>
