<svg width="24" height="26" viewBox="0 0 24 26" fill="none" xmlns="http://www.w3.org/2000/svg">
<path fill-rule="evenodd" clip-rule="evenodd" d="M17.493 23.7814C15.778 23.7182 10.9175 23.0465 5.82723 17.9574C0.73811 12.8671 0.0675794 8.00783 0.0032657 6.29161C-0.0920139 3.67618 1.91124 1.13579 4.22534 0.143692C4.50401 0.0233625 4.80917 -0.0224507 5.11088 0.0107482C5.4126 0.0439472 5.7005 0.155018 5.94633 0.333061C7.85192 1.72176 9.16678 3.82268 10.2958 5.47459C10.5443 5.83752 10.6505 6.27916 10.5943 6.71536C10.538 7.15156 10.3233 7.55183 9.99095 7.8399L7.66732 9.56565C7.55506 9.64672 7.47604 9.76577 7.44493 9.90071C7.41383 10.0356 7.43275 10.1773 7.4982 10.2993C8.02462 11.2557 8.96074 12.6801 10.0326 13.752C11.1045 14.8239 12.5968 15.8219 13.6199 16.4079C13.7482 16.4799 13.8992 16.5001 14.0418 16.4642C14.1845 16.4283 14.308 16.3391 14.3869 16.215L15.8995 13.9128C16.1776 13.5434 16.5878 13.2959 17.0442 13.2222C17.5007 13.1485 17.9679 13.2543 18.3482 13.5174C20.0239 14.6774 21.9795 15.9696 23.4111 17.8026C23.6036 18.0502 23.726 18.345 23.7656 18.6561C23.8052 18.9672 23.7605 19.2833 23.6362 19.5712C22.6393 21.8972 20.1168 23.8778 17.493 23.7814Z" fill="white"/>
</svg>
