<svg width="25" height="25" viewBox="0 0 25 25" fill="none" xmlns="http://www.w3.org/2000/svg">
<path d="M17.95 15.0002C18.05 14.1752 18.125 13.3502 18.125 12.5002C18.125 11.6502 18.05 10.8252 17.95 10.0002H22.175C22.375 10.8002 22.5 11.6377 22.5 12.5002C22.5 13.3627 22.375 14.2002 22.175 15.0002M15.7375 21.9502C16.4875 20.5627 17.0625 19.0627 17.4625 17.5002H21.15C19.939 19.5856 18.0176 21.1652 15.7375 21.9502ZM15.425 15.0002H9.575C9.45 14.1752 9.375 13.3502 9.375 12.5002C9.375 11.6502 9.45 10.8127 9.575 10.0002H15.425C15.5375 10.8127 15.625 11.6502 15.625 12.5002C15.625 13.3502 15.5375 14.1752 15.425 15.0002ZM12.5 22.4502C11.4625 20.9502 10.625 19.2877 10.1125 17.5002H14.8875C14.375 19.2877 13.5375 20.9502 12.5 22.4502ZM7.5 7.50024H3.85C5.0483 5.40904 6.96832 3.8268 9.25 3.05024C8.5 4.43774 7.9375 5.93774 7.5 7.50024ZM3.85 17.5002H7.5C7.9375 19.0627 8.5 20.5627 9.25 21.9502C6.97283 21.1656 5.05536 19.5855 3.85 17.5002ZM2.825 15.0002C2.625 14.2002 2.5 13.3627 2.5 12.5002C2.5 11.6377 2.625 10.8002 2.825 10.0002H7.05C6.95 10.8252 6.875 11.6502 6.875 12.5002C6.875 13.3502 6.95 14.1752 7.05 15.0002M12.5 2.53774C13.5375 4.03774 14.375 5.71274 14.8875 7.50024H10.1125C10.625 5.71274 11.4625 4.03774 12.5 2.53774ZM21.15 7.50024H17.4625C17.0707 5.95226 16.4914 4.45788 15.7375 3.05024C18.0375 3.83774 19.95 5.42524 21.15 7.50024ZM12.5 0.000244141C5.5875 0.000244141 0 5.62524 0 12.5002C0 15.8155 1.31696 18.9949 3.66117 21.3391C4.8219 22.4998 6.19989 23.4206 7.71646 24.0487C9.23303 24.6769 10.8585 25.0002 12.5 25.0002C15.8152 25.0002 18.9946 23.6833 21.3388 21.3391C23.683 18.9949 25 15.8155 25 12.5002C25 10.8587 24.6767 9.23327 24.0485 7.7167C23.4203 6.20013 22.4996 4.82214 21.3388 3.66141C20.1781 2.50068 18.8001 1.57993 17.2835 0.95175C15.767 0.323566 14.1415 0.000244141 12.5 0.000244141Z" fill="white"/>
</svg>
